<svg width="29" height="30" viewBox="0 0 29 30" fill="none" xmlns="http://www.w3.org/2000/svg">
<g id="Group 7">
<path id="Ellipse 13" d="M28.5 14.8838C28.5 22.6158 22.232 28.8838 14.5 28.8838C6.76801 28.8838 0.5 22.6158 0.5 14.8838C0.5 7.1518 6.76801 0.883789 14.5 0.883789C22.232 0.883789 28.5 7.1518 28.5 14.8838ZM5.7794 14.8838C5.7794 19.7 9.68375 23.6044 14.5 23.6044C19.3163 23.6044 23.2206 19.7 23.2206 14.8838C23.2206 10.0675 19.3163 6.16319 14.5 6.16319C9.68375 6.16319 5.7794 10.0675 5.7794 14.8838Z" fill="white"/>
<path id="Ellipse 15" d="M28.5 14.8838C28.5 22.6158 22.232 28.8838 14.5 28.8838C6.76801 28.8838 0.5 22.6158 0.5 14.8838C0.5 7.1518 6.76801 0.883789 14.5 0.883789C22.232 0.883789 28.5 7.1518 28.5 14.8838ZM5.77962 14.8838C5.77962 19.6999 9.68386 23.6042 14.5 23.6042C19.3161 23.6042 23.2204 19.6999 23.2204 14.8838C23.2204 10.0677 19.3161 6.1634 14.5 6.1634C9.68386 6.1634 5.77962 10.0677 5.77962 14.8838Z" fill="url(#paint0_angular_313_1069)"/>
<circle id="Ellipse 14" cx="13.9167" cy="26.4333" r="2.68333" fill="#32683B"/>
</g>
<defs>
<radialGradient id="paint0_angular_313_1069" cx="0" cy="0" r="1" gradientUnits="userSpaceOnUse" gradientTransform="translate(14.5 14.8838) rotate(90) scale(14)">
<stop stop-color="#225C2B"/>
<stop offset="1" stop-color="#225C2B" stop-opacity="0"/>
</radialGradient>
</defs>
</svg>
