<svg width="59" height="58" viewBox="0 0 59 58" fill="none" xmlns="http://www.w3.org/2000/svg">
<path d="M20.8 39.411L29.5 30.711L38.2 39.411L39.911 37.7L31.211 29L39.911 20.3L38.2 18.589L29.5 27.289L20.8 18.589L19.089 20.3L27.789 29L19.089 37.7L20.8 39.411ZM29.5073 50.75C26.5009 50.75 23.6734 50.1797 21.0248 49.039C18.3777 47.8967 16.0746 46.3468 14.1155 44.3893C12.1564 42.4334 10.6057 40.1328 9.46342 37.4873C8.32114 34.8419 7.75 32.0152 7.75 29.0073C7.75 26.0009 8.32033 23.1734 9.461 20.5248C10.6033 17.8777 12.1532 15.5746 14.1107 13.6155C16.0666 11.6564 18.3672 10.1057 21.0127 8.96342C23.6581 7.82114 26.4848 7.25 29.4928 7.25C32.4991 7.25 35.3266 7.82033 37.9753 8.961C40.6223 10.1033 42.9254 11.6532 44.8845 13.6107C46.8436 15.5666 48.3943 17.8672 49.5366 20.5127C50.6789 23.1581 51.25 25.9848 51.25 28.9928C51.25 31.9991 50.6797 34.8266 49.539 37.4753C48.3967 40.1223 46.8468 42.4254 44.8893 44.3845C42.9334 46.3436 40.6328 47.8943 37.9873 49.0366C35.3419 50.1789 32.5152 50.75 29.5073 50.75ZM29.5 48.3333C34.8972 48.3333 39.4688 46.4604 43.2146 42.7146C46.9604 38.9688 48.8333 34.3972 48.8333 29C48.8333 23.6028 46.9604 19.0312 43.2146 15.2854C39.4688 11.5396 34.8972 9.66667 29.5 9.66667C24.1028 9.66667 19.5312 11.5396 15.7854 15.2854C12.0396 19.0312 10.1667 23.6028 10.1667 29C10.1667 34.3972 12.0396 38.9688 15.7854 42.7146C19.5312 46.4604 24.1028 48.3333 29.5 48.3333Z" fill="#DA1E28"/>
</svg>
