<svg width="59" height="58" viewBox="0 0 59 58" fill="none" xmlns="http://www.w3.org/2000/svg">
<g id="teenyicons:tick-circle-outline" clip-path="url(#clip0_109_1118)">
<path id="Vector" d="M15.9669 29L27.5669 38.6667L43.0336 19.3333M29.5003 56.0667C25.9458 56.0667 22.4262 55.3666 19.1423 54.0064C15.8584 52.6461 12.8746 50.6524 10.3612 48.139C7.84786 45.6257 5.85415 42.6419 4.49392 39.358C3.13369 36.0741 2.43359 32.5545 2.43359 29C2.43359 25.4456 3.13369 21.9259 4.49392 18.6421C5.85415 15.3582 7.84786 12.3744 10.3612 9.86099C12.8746 7.34762 15.8584 5.3539 19.1423 3.99368C22.4262 2.63345 25.9458 1.93335 29.5003 1.93335C36.6788 1.93335 43.5633 4.78501 48.6393 9.86099C53.7153 14.937 56.5669 21.8215 56.5669 29C56.5669 36.1785 53.7153 43.0631 48.6393 48.139C43.5633 53.215 36.6788 56.0667 29.5003 56.0667Z" stroke="#35BF4A" stroke-width="3.86667"/>
</g>
<defs>
<clipPath id="clip0_109_1118">
<rect width="58" height="58" fill="white" transform="translate(0.5)"/>
</clipPath>
</defs>
</svg>
