<svg width="90" height="53" viewBox="0 0 90 53" fill="none" xmlns="http://www.w3.org/2000/svg">
<circle cx="68.3383" cy="22.0726" r="12.1625" fill="#FCD12A"/>
<path d="M68.564 0L70.7096 6.41909H66.4184L68.564 0Z" fill="#FCD12A"/>
<path d="M86.265 9.12752L83.1912 15.1574L80.1831 12.097L86.265 9.12752Z" fill="#FCD12A"/>
<path d="M88.9608 29.0945L82.1979 29.3618L83.3965 25.2414L88.9608 29.0945Z" fill="#FCD12A"/>
<path d="M68.564 44.1513L66.4343 37.7269L70.7255 37.7376L68.564 44.1513Z" fill="#FCD12A"/>
<path d="M50.1977 34.6517L53.4615 28.7225L56.3709 31.8769L50.1977 34.6517Z" fill="#FCD12A"/>
<path d="M47.2922 15.4794L53.9196 14.1059L53.4134 18.3672L47.2922 15.4794Z" fill="#FCD12A"/>
<path fill-rule="evenodd" clip-rule="evenodd" d="M68.6914 52.6143C73.936 51.9806 78 47.5143 78 42.0988C78 36.9948 74.3902 32.734 69.5844 31.7301C69.6307 31.2337 69.6543 30.7307 69.6543 30.2222C69.6543 21.3584 62.4688 14.1728 53.6049 14.1728C49.5005 14.1728 45.756 15.7135 42.918 18.2482C40.1762 13.328 34.9212 10 28.8889 10C20.7624 10 14.0467 16.0397 12.9855 23.8752C5.69322 24.6066 0 30.7619 0 38.2469C0 45.0063 4.64292 50.6813 10.9136 52.2567V52.6914H14.4444L67.4074 52.6914L68.6914 52.6914V52.6143Z" fill="white"/>
</svg>
